<?xml version="1.0" standalone="no"?>
<!DOCTYPE svg PUBLIC "-//W3C//DTD SVG 20010904//EN"
 "http://www.w3.org/TR/2001/REC-SVG-20010904/DTD/svg10.dtd">
<svg version="1.0" xmlns="http://www.w3.org/2000/svg"
 width="975.000000pt" height="975.000000pt" viewBox="0 0 975.000000 975.000000"
 preserveAspectRatio="xMidYMid meet">
<metadata>
Created by potrace 1.11, written by Peter Selinger 2001-2013
</metadata>
<g transform="translate(0.000000,975.000000) scale(0.100000,-0.100000)"
fill="#000000" stroke="none">
<path d="M4410 9183 c-51 -5 -235 -32 -305 -44 l-60 -10 0 -87 c0 -73 -4 -95
-25 -135 -52 -103 -150 -161 -270 -162 -62 0 -85 5 -132 28 -65 32 -118 88
-145 153 -15 36 -22 43 -38 38 -40 -12 -293 -114 -378 -153 l-86 -40 21 -48
c45 -101 22 -224 -58 -313 -61 -67 -124 -95 -219 -95 -68 0 -89 4 -138 28 -34
17 -72 47 -94 73 -21 24 -40 44 -44 44 -10 0 -205 -145 -311 -232 l-97 -79 33
-43 c43 -57 60 -120 54 -204 -11 -157 -133 -272 -288 -272 -85 0 -130 13 -184
55 l-45 34 -94 -117 c-109 -135 -217 -282 -217 -297 0 -6 14 -19 30 -29 40
-23 96 -108 111 -169 43 -174 -83 -349 -266 -372 -46 -6 -77 0 -171 30 -19 6
-26 -7 -78 -124 -58 -133 -139 -342 -134 -345 2 -2 29 -15 61 -30 184 -88 221
-347 70 -487 -66 -61 -123 -82 -215 -82 -75 1 -77 1 -83 -25 -13 -64 -45 -305
-51 -388 l-7 -92 52 -11 c151 -32 240 -133 249 -282 4 -67 1 -83 -23 -138 -18
-40 -44 -76 -73 -101 -46 -41 -134 -80 -179 -80 l-26 0 6 -97 c7 -96 25 -238
48 -359 l11 -61 66 4 c124 9 235 -55 289 -165 38 -76 39 -181 4 -260 -28 -63
-106 -137 -162 -153 -21 -7 -39 -15 -39 -18 0 -22 130 -342 176 -433 l23 -46
53 20 c41 16 69 19 123 16 115 -8 203 -65 252 -166 59 -120 28 -272 -74 -362
l-46 -40 28 -42 c40 -61 195 -264 245 -320 l41 -47 40 29 c129 93 302 74 407
-45 50 -56 72 -119 72 -199 -1 -70 -17 -121 -55 -176 -23 -33 -26 -42 -15 -55
20 -24 182 -152 293 -233 l99 -72 49 54 c145 159 390 126 488 -66 29 -57 34
-77 34 -135 0 -47 -6 -83 -21 -115 l-20 -46 131 -58 c131 -57 328 -134 344
-134 4 0 18 22 30 48 107 233 427 234 549 2 13 -26 18 -58 18 -120 1 -50 5
-88 12 -92 19 -13 356 -58 430 -58 l72 0 7 38 c18 99 80 183 170 230 69 35
177 37 250 4 93 -43 161 -131 180 -235 l7 -37 72 0 c74 0 411 45 430 58 7 4
11 42 12 92 0 62 5 94 18 120 37 69 77 109 142 141 53 26 76 32 133 32 118 0
225 -68 274 -175 12 -26 26 -48 30 -48 16 0 213 77 344 134 l131 58 -20 46
c-15 32 -21 68 -21 115 0 58 5 78 34 135 98 192 343 225 488 66 l49 -54 99 72
c110 80 273 209 292 232 11 13 9 21 -8 45 -42 59 -61 114 -61 182 0 85 22 147
72 204 105 119 278 138 407 45 l40 -29 41 47 c50 56 205 259 245 320 l28 42
-46 40 c-102 90 -133 242 -74 362 49 101 137 158 252 166 54 3 82 0 123 -16
l53 -20 23 46 c46 91 176 411 176 433 0 3 -18 11 -41 18 -25 8 -61 32 -94 64
-201 198 -53 534 227 514 l66 -4 11 61 c23 121 41 263 48 359 l6 97 -26 0
c-45 0 -133 39 -179 80 -29 25 -55 61 -73 101 -24 55 -27 71 -23 138 9 149 98
250 249 282 l52 11 -7 92 c-6 83 -38 324 -51 388 -6 26 -8 26 -84 25 -66 0
-88 4 -134 26 -193 95 -235 343 -83 491 26 24 66 52 91 62 25 9 45 18 45 20 0
12 -88 236 -136 345 -52 117 -59 130 -78 124 -94 -30 -125 -36 -171 -30 -183
23 -309 198 -266 372 15 61 71 146 111 169 16 10 30 23 30 29 0 15 -108 162
-217 297 l-94 117 -45 -34 c-54 -42 -99 -55 -184 -55 -155 0 -277 115 -288
272 -6 84 11 147 54 204 l33 43 -97 79 c-106 87 -301 232 -311 232 -4 0 -23
-20 -44 -44 -22 -26 -60 -56 -94 -73 -49 -24 -70 -28 -138 -28 -95 0 -158 28
-219 95 -80 89 -103 212 -58 313 l21 48 -86 40 c-85 39 -338 141 -378 153 -16
5 -23 -2 -38 -38 -27 -65 -80 -121 -145 -153 -47 -23 -70 -28 -132 -28 -120 1
-218 59 -270 162 -21 40 -25 62 -25 136 0 48 0 87 -1 87 0 0 -71 11 -157 25
-86 13 -201 27 -255 31 l-99 7 -12 -61 c-21 -106 -109 -204 -209 -232 -47 -13
-127 -13 -174 0 -99 28 -188 126 -209 231 l-12 59 -56 -2 c-31 0 -72 -3 -91
-5z m-591 -1783 c123 -16 201 -39 310 -92 88 -42 116 -62 186 -131 92 -92 150
-183 195 -305 55 -151 60 -210 60 -698 l0 -444 -340 0 -339 0 -3 423 -3 422
-26 56 c-32 67 -77 104 -147 120 -109 26 -207 -24 -256 -130 l-21 -46 0 -1715
0 -1715 22 -48 c27 -59 79 -86 163 -87 107 0 181 37 218 110 22 44 22 46 22
537 l0 493 -115 0 -115 0 0 300 0 300 455 0 455 0 0 -817 c0 -676 -3 -834 -15
-910 -44 -272 -175 -458 -400 -568 -130 -64 -228 -86 -417 -92 -349 -12 -576
54 -738 217 -120 119 -185 273 -211 495 -7 60 -9 679 -7 1845 4 1903 1 1781
56 1940 107 309 345 495 687 539 96 12 235 12 324 1z m2757 -2495 c183 -1358
333 -2480 333 -2493 l1 -22 -357 2 -357 3 -78 600 c-42 330 -77 601 -78 603 0
1 -94 2 -209 2 l-208 0 -5 -32 c-3 -18 -38 -291 -79 -605 l-73 -573 -362 0
-361 0 4 23 c2 12 149 1120 328 2462 179 1342 327 2455 330 2473 l6 32 416 -2
417 -3 332 -2470z"/>
<path d="M5740 4781 c-45 -14 -84 -38 -124 -78 -151 -149 -104 -401 92 -491
47 -21 64 -24 136 -20 98 5 150 30 214 103 70 80 91 195 55 301 -23 67 -110
154 -177 177 -51 17 -151 21 -196 8z"/>
</g>
</svg>
